<mxfile host="app.diagrams.net" modified="2022-07-12T17:39:03.749Z" agent="5.0 (Windows NT 10.0; Win64; x64) AppleWebKit/537.36 (KHTML, like Gecko) Chrome/103.0.0.0 Safari/537.36" etag="n7a8KaDwQaiXL-WpbfRA" version="20.0.4" type="github">
  <diagram id="C5RBs43oDa-KdzZeNtuy" name="Page-1">
    <mxGraphModel dx="1495" dy="371" grid="0" gridSize="10" guides="1" tooltips="1" connect="1" arrows="1" fold="1" page="1" pageScale="1" pageWidth="827" pageHeight="1169" math="0" shadow="0">
      <root>
        <mxCell id="WIyWlLk6GJQsqaUBKTNV-0" />
        <mxCell id="WIyWlLk6GJQsqaUBKTNV-1" parent="WIyWlLk6GJQsqaUBKTNV-0" />
        <mxCell id="YIQKjSeeT6Y3a5OQeeYc-2" style="edgeStyle=orthogonalEdgeStyle;rounded=0;orthogonalLoop=1;jettySize=auto;html=1;exitX=0.5;exitY=1;exitDx=0;exitDy=0;fontFamily=Helvetica;fontSize=17;fontColor=default;" edge="1" parent="WIyWlLk6GJQsqaUBKTNV-1" source="WIyWlLk6GJQsqaUBKTNV-3">
          <mxGeometry relative="1" as="geometry">
            <mxPoint x="442" y="588" as="targetPoint" />
          </mxGeometry>
        </mxCell>
        <mxCell id="YIQKjSeeT6Y3a5OQeeYc-40" style="edgeStyle=orthogonalEdgeStyle;rounded=0;orthogonalLoop=1;jettySize=auto;html=1;exitX=0.5;exitY=0;exitDx=0;exitDy=0;fontFamily=Helvetica;fontSize=9;fontColor=default;" edge="1" parent="WIyWlLk6GJQsqaUBKTNV-1" source="WIyWlLk6GJQsqaUBKTNV-3" target="YIQKjSeeT6Y3a5OQeeYc-41">
          <mxGeometry relative="1" as="geometry">
            <mxPoint x="435" y="391" as="targetPoint" />
          </mxGeometry>
        </mxCell>
        <mxCell id="YIQKjSeeT6Y3a5OQeeYc-53" style="edgeStyle=orthogonalEdgeStyle;rounded=0;orthogonalLoop=1;jettySize=auto;html=1;fontFamily=Helvetica;fontSize=17;fontColor=default;" edge="1" parent="WIyWlLk6GJQsqaUBKTNV-1" source="WIyWlLk6GJQsqaUBKTNV-3" target="YIQKjSeeT6Y3a5OQeeYc-54">
          <mxGeometry relative="1" as="geometry">
            <mxPoint x="1111" y="485.5" as="targetPoint" />
          </mxGeometry>
        </mxCell>
        <mxCell id="WIyWlLk6GJQsqaUBKTNV-3" value="&lt;b style=&quot;font-size: 20px;&quot;&gt;JAVA&lt;br style=&quot;&quot;&gt;(&lt;span style=&quot;color: rgb(77, 81, 86); font-family: arial, sans-serif; text-align: left; background-color: rgb(255, 255, 255);&quot;&gt;programming language and computing platform&lt;/span&gt;)&lt;/b&gt;" style="rounded=1;whiteSpace=wrap;html=1;fontSize=17;glass=0;strokeWidth=1;shadow=0;" parent="WIyWlLk6GJQsqaUBKTNV-1" vertex="1">
          <mxGeometry x="300" y="431" width="283" height="109" as="geometry" />
        </mxCell>
        <mxCell id="YIQKjSeeT6Y3a5OQeeYc-6" style="edgeStyle=orthogonalEdgeStyle;rounded=0;orthogonalLoop=1;jettySize=auto;html=1;fontFamily=Helvetica;fontSize=17;fontColor=default;" edge="1" parent="WIyWlLk6GJQsqaUBKTNV-1" source="WIyWlLk6GJQsqaUBKTNV-11" target="YIQKjSeeT6Y3a5OQeeYc-3">
          <mxGeometry relative="1" as="geometry" />
        </mxCell>
        <mxCell id="YIQKjSeeT6Y3a5OQeeYc-7" style="edgeStyle=orthogonalEdgeStyle;rounded=0;orthogonalLoop=1;jettySize=auto;html=1;fontFamily=Helvetica;fontSize=17;fontColor=default;" edge="1" parent="WIyWlLk6GJQsqaUBKTNV-1" target="YIQKjSeeT6Y3a5OQeeYc-4">
          <mxGeometry relative="1" as="geometry">
            <mxPoint x="487" y="611" as="sourcePoint" />
          </mxGeometry>
        </mxCell>
        <mxCell id="WIyWlLk6GJQsqaUBKTNV-11" value="CLASS" style="rounded=1;whiteSpace=wrap;html=1;fontSize=12;glass=0;strokeWidth=1;shadow=0;" parent="WIyWlLk6GJQsqaUBKTNV-1" vertex="1">
          <mxGeometry x="369" y="594" width="120" height="39" as="geometry" />
        </mxCell>
        <mxCell id="YIQKjSeeT6Y3a5OQeeYc-26" style="edgeStyle=orthogonalEdgeStyle;rounded=0;orthogonalLoop=1;jettySize=auto;html=1;exitX=0.5;exitY=1;exitDx=0;exitDy=0;fontFamily=Helvetica;fontSize=11;fontColor=default;" edge="1" parent="WIyWlLk6GJQsqaUBKTNV-1" source="YIQKjSeeT6Y3a5OQeeYc-3">
          <mxGeometry relative="1" as="geometry">
            <mxPoint x="208" y="782" as="targetPoint" />
          </mxGeometry>
        </mxCell>
        <mxCell id="YIQKjSeeT6Y3a5OQeeYc-3" value="OBJECT CLASS" style="ellipse;whiteSpace=wrap;html=1;shadow=0;fontFamily=Helvetica;fontSize=17;strokeWidth=1;" vertex="1" parent="WIyWlLk6GJQsqaUBKTNV-1">
          <mxGeometry x="141" y="669" width="122" height="80" as="geometry" />
        </mxCell>
        <mxCell id="YIQKjSeeT6Y3a5OQeeYc-11" style="edgeStyle=orthogonalEdgeStyle;rounded=0;orthogonalLoop=1;jettySize=auto;html=1;exitX=0.5;exitY=1;exitDx=0;exitDy=0;fontFamily=Helvetica;fontSize=17;fontColor=default;" edge="1" parent="WIyWlLk6GJQsqaUBKTNV-1" source="YIQKjSeeT6Y3a5OQeeYc-4" target="YIQKjSeeT6Y3a5OQeeYc-8">
          <mxGeometry relative="1" as="geometry" />
        </mxCell>
        <mxCell id="YIQKjSeeT6Y3a5OQeeYc-12" style="edgeStyle=orthogonalEdgeStyle;rounded=0;orthogonalLoop=1;jettySize=auto;html=1;fontFamily=Helvetica;fontSize=17;fontColor=default;" edge="1" parent="WIyWlLk6GJQsqaUBKTNV-1" source="YIQKjSeeT6Y3a5OQeeYc-4" target="YIQKjSeeT6Y3a5OQeeYc-10">
          <mxGeometry relative="1" as="geometry" />
        </mxCell>
        <mxCell id="YIQKjSeeT6Y3a5OQeeYc-4" value="SYSTEM CLASS" style="ellipse;whiteSpace=wrap;html=1;shadow=0;fontFamily=Helvetica;fontSize=17;strokeWidth=1;" vertex="1" parent="WIyWlLk6GJQsqaUBKTNV-1">
          <mxGeometry x="588" y="651" width="122" height="80" as="geometry" />
        </mxCell>
        <mxCell id="YIQKjSeeT6Y3a5OQeeYc-13" style="edgeStyle=orthogonalEdgeStyle;rounded=0;orthogonalLoop=1;jettySize=auto;html=1;exitX=0.5;exitY=1;exitDx=0;exitDy=0;fontFamily=Helvetica;fontSize=17;fontColor=default;" edge="1" parent="WIyWlLk6GJQsqaUBKTNV-1" source="YIQKjSeeT6Y3a5OQeeYc-8">
          <mxGeometry relative="1" as="geometry">
            <mxPoint x="568" y="884" as="targetPoint" />
            <Array as="points">
              <mxPoint x="568" y="881" />
              <mxPoint x="568" y="881" />
            </Array>
          </mxGeometry>
        </mxCell>
        <mxCell id="YIQKjSeeT6Y3a5OQeeYc-8" value="PrintStream" style="rounded=1;whiteSpace=wrap;html=1;fontFamily=Helvetica;fontSize=17;fontColor=default;" vertex="1" parent="WIyWlLk6GJQsqaUBKTNV-1">
          <mxGeometry x="508" y="790" width="120" height="60" as="geometry" />
        </mxCell>
        <mxCell id="YIQKjSeeT6Y3a5OQeeYc-14" style="edgeStyle=orthogonalEdgeStyle;rounded=0;orthogonalLoop=1;jettySize=auto;html=1;exitX=0.5;exitY=1;exitDx=0;exitDy=0;fontFamily=Helvetica;fontSize=17;fontColor=default;" edge="1" parent="WIyWlLk6GJQsqaUBKTNV-1" source="YIQKjSeeT6Y3a5OQeeYc-10">
          <mxGeometry relative="1" as="geometry">
            <mxPoint x="732" y="884" as="targetPoint" />
            <Array as="points">
              <mxPoint x="732" y="873" />
              <mxPoint x="732" y="873" />
            </Array>
          </mxGeometry>
        </mxCell>
        <mxCell id="YIQKjSeeT6Y3a5OQeeYc-10" value="InputStream" style="rounded=1;whiteSpace=wrap;html=1;fontFamily=Helvetica;fontSize=17;fontColor=default;" vertex="1" parent="WIyWlLk6GJQsqaUBKTNV-1">
          <mxGeometry x="672" y="790" width="120" height="60" as="geometry" />
        </mxCell>
        <mxCell id="YIQKjSeeT6Y3a5OQeeYc-16" value="in&lt;br&gt;(read)" style="ellipse;whiteSpace=wrap;html=1;fontFamily=Helvetica;fontSize=17;fontColor=default;" vertex="1" parent="WIyWlLk6GJQsqaUBKTNV-1">
          <mxGeometry x="678" y="885" width="120" height="64" as="geometry" />
        </mxCell>
        <mxCell id="YIQKjSeeT6Y3a5OQeeYc-17" value="out&lt;br&gt;(println, printf)" style="ellipse;whiteSpace=wrap;html=1;fontFamily=Helvetica;fontSize=17;fontColor=default;" vertex="1" parent="WIyWlLk6GJQsqaUBKTNV-1">
          <mxGeometry x="499" y="883" width="123" height="64" as="geometry" />
        </mxCell>
        <mxCell id="YIQKjSeeT6Y3a5OQeeYc-21" value="" style="endArrow=none;dashed=1;html=1;dashPattern=1 3;strokeWidth=2;rounded=0;fontFamily=Helvetica;fontSize=17;fontColor=default;entryX=0;entryY=0.25;entryDx=0;entryDy=0;" edge="1" parent="WIyWlLk6GJQsqaUBKTNV-1" target="YIQKjSeeT6Y3a5OQeeYc-22">
          <mxGeometry width="50" height="50" relative="1" as="geometry">
            <mxPoint x="259" y="696" as="sourcePoint" />
            <mxPoint x="349" y="696" as="targetPoint" />
          </mxGeometry>
        </mxCell>
        <mxCell id="YIQKjSeeT6Y3a5OQeeYc-22" value="INHERITANCE" style="whiteSpace=wrap;html=1;fontFamily=Helvetica;fontSize=11;rounded=0;shadow=0;sketch=0;fillColor=#b1ddf0;strokeColor=#10739e;" vertex="1" parent="WIyWlLk6GJQsqaUBKTNV-1">
          <mxGeometry x="372" y="679" width="93" height="60" as="geometry" />
        </mxCell>
        <mxCell id="YIQKjSeeT6Y3a5OQeeYc-24" value="" style="endArrow=none;dashed=1;html=1;dashPattern=1 3;strokeWidth=2;rounded=0;fontFamily=Helvetica;fontSize=11;fontColor=default;exitX=1;exitY=0.25;exitDx=0;exitDy=0;" edge="1" parent="WIyWlLk6GJQsqaUBKTNV-1" source="YIQKjSeeT6Y3a5OQeeYc-22" target="YIQKjSeeT6Y3a5OQeeYc-4">
          <mxGeometry width="50" height="50" relative="1" as="geometry">
            <mxPoint x="467" y="710" as="sourcePoint" />
            <mxPoint x="517" y="660" as="targetPoint" />
          </mxGeometry>
        </mxCell>
        <mxCell id="YIQKjSeeT6Y3a5OQeeYc-29" style="edgeStyle=orthogonalEdgeStyle;rounded=0;orthogonalLoop=1;jettySize=auto;html=1;exitX=0.5;exitY=1;exitDx=0;exitDy=0;fontFamily=Helvetica;fontSize=18;fontColor=default;" edge="1" parent="WIyWlLk6GJQsqaUBKTNV-1" source="YIQKjSeeT6Y3a5OQeeYc-27" target="YIQKjSeeT6Y3a5OQeeYc-27">
          <mxGeometry relative="1" as="geometry">
            <mxPoint x="226" y="908" as="targetPoint" />
          </mxGeometry>
        </mxCell>
        <mxCell id="YIQKjSeeT6Y3a5OQeeYc-30" style="edgeStyle=orthogonalEdgeStyle;rounded=0;orthogonalLoop=1;jettySize=auto;html=1;fontFamily=Helvetica;fontSize=18;fontColor=default;" edge="1" parent="WIyWlLk6GJQsqaUBKTNV-1" source="YIQKjSeeT6Y3a5OQeeYc-27">
          <mxGeometry relative="1" as="geometry">
            <mxPoint x="282" y="972" as="targetPoint" />
          </mxGeometry>
        </mxCell>
        <mxCell id="YIQKjSeeT6Y3a5OQeeYc-31" style="edgeStyle=orthogonalEdgeStyle;rounded=0;orthogonalLoop=1;jettySize=auto;html=1;fontFamily=Helvetica;fontSize=18;fontColor=default;" edge="1" parent="WIyWlLk6GJQsqaUBKTNV-1">
          <mxGeometry relative="1" as="geometry">
            <mxPoint x="116" y="973" as="targetPoint" />
            <mxPoint x="148" y="838" as="sourcePoint" />
          </mxGeometry>
        </mxCell>
        <mxCell id="YIQKjSeeT6Y3a5OQeeYc-32" style="edgeStyle=orthogonalEdgeStyle;rounded=0;orthogonalLoop=1;jettySize=auto;html=1;exitX=1;exitY=1;exitDx=0;exitDy=0;fontFamily=Helvetica;fontSize=18;fontColor=default;" edge="1" parent="WIyWlLk6GJQsqaUBKTNV-1" source="YIQKjSeeT6Y3a5OQeeYc-27">
          <mxGeometry relative="1" as="geometry">
            <mxPoint x="238" y="974" as="targetPoint" />
          </mxGeometry>
        </mxCell>
        <mxCell id="YIQKjSeeT6Y3a5OQeeYc-33" style="edgeStyle=orthogonalEdgeStyle;rounded=0;orthogonalLoop=1;jettySize=auto;html=1;exitX=0.5;exitY=1;exitDx=0;exitDy=0;fontFamily=Helvetica;fontSize=18;fontColor=default;" edge="1" parent="WIyWlLk6GJQsqaUBKTNV-1" source="YIQKjSeeT6Y3a5OQeeYc-27" target="YIQKjSeeT6Y3a5OQeeYc-35">
          <mxGeometry relative="1" as="geometry">
            <mxPoint x="202" y="964" as="targetPoint" />
          </mxGeometry>
        </mxCell>
        <mxCell id="YIQKjSeeT6Y3a5OQeeYc-34" style="edgeStyle=orthogonalEdgeStyle;rounded=0;orthogonalLoop=1;jettySize=auto;html=1;exitX=0;exitY=1;exitDx=0;exitDy=0;fontFamily=Helvetica;fontSize=18;fontColor=default;" edge="1" parent="WIyWlLk6GJQsqaUBKTNV-1" source="YIQKjSeeT6Y3a5OQeeYc-27">
          <mxGeometry relative="1" as="geometry">
            <mxPoint x="166" y="973" as="targetPoint" />
          </mxGeometry>
        </mxCell>
        <mxCell id="YIQKjSeeT6Y3a5OQeeYc-27" value="PACKAGE" style="ellipse;whiteSpace=wrap;html=1;aspect=fixed;fontFamily=Helvetica;fontSize=18;fontColor=default;fontStyle=0" vertex="1" parent="WIyWlLk6GJQsqaUBKTNV-1">
          <mxGeometry x="151" y="787" width="102" height="102" as="geometry" />
        </mxCell>
        <mxCell id="YIQKjSeeT6Y3a5OQeeYc-35" value="&lt;font style=&quot;font-size: 10px;&quot;&gt;java.io&lt;/font&gt;" style="rounded=1;whiteSpace=wrap;html=1;fontFamily=Helvetica;fontSize=18;fontColor=default;" vertex="1" parent="WIyWlLk6GJQsqaUBKTNV-1">
          <mxGeometry x="183" y="987" width="38" height="15" as="geometry" />
        </mxCell>
        <mxCell id="YIQKjSeeT6Y3a5OQeeYc-36" value="&lt;font style=&quot;font-size: 9px;&quot;&gt;java.util&lt;/font&gt;" style="rounded=1;whiteSpace=wrap;html=1;fontFamily=Helvetica;fontSize=18;fontColor=default;" vertex="1" parent="WIyWlLk6GJQsqaUBKTNV-1">
          <mxGeometry x="228" y="987" width="38" height="15" as="geometry" />
        </mxCell>
        <mxCell id="YIQKjSeeT6Y3a5OQeeYc-37" value="&lt;font style=&quot;font-size: 9px;&quot;&gt;java.awt&lt;/font&gt;" style="rounded=1;whiteSpace=wrap;html=1;fontFamily=Helvetica;fontSize=18;fontColor=default;" vertex="1" parent="WIyWlLk6GJQsqaUBKTNV-1">
          <mxGeometry x="273" y="987" width="38" height="15" as="geometry" />
        </mxCell>
        <mxCell id="YIQKjSeeT6Y3a5OQeeYc-38" value="&lt;font style=&quot;font-size: 10px;&quot;&gt;&lt;font style=&quot;font-size: 10px;&quot;&gt;java&lt;/font&gt;.&lt;font style=&quot;font-size: 10px;&quot;&gt;lang&lt;/font&gt;&lt;/font&gt;" style="rounded=1;whiteSpace=wrap;html=1;fontFamily=Helvetica;fontSize=18;fontColor=default;" vertex="1" parent="WIyWlLk6GJQsqaUBKTNV-1">
          <mxGeometry x="134" y="989" width="42" height="15" as="geometry" />
        </mxCell>
        <mxCell id="YIQKjSeeT6Y3a5OQeeYc-39" value="&lt;font size=&quot;1&quot;&gt;java.applet&lt;/font&gt;" style="rounded=1;whiteSpace=wrap;html=1;fontFamily=Helvetica;fontSize=18;fontColor=default;" vertex="1" parent="WIyWlLk6GJQsqaUBKTNV-1">
          <mxGeometry x="77" y="989" width="51" height="16" as="geometry" />
        </mxCell>
        <mxCell id="YIQKjSeeT6Y3a5OQeeYc-42" style="edgeStyle=orthogonalEdgeStyle;rounded=0;orthogonalLoop=1;jettySize=auto;html=1;exitX=0.5;exitY=0;exitDx=0;exitDy=0;fontFamily=Helvetica;fontSize=17;fontColor=default;" edge="1" parent="WIyWlLk6GJQsqaUBKTNV-1" source="YIQKjSeeT6Y3a5OQeeYc-41" target="YIQKjSeeT6Y3a5OQeeYc-43">
          <mxGeometry relative="1" as="geometry">
            <mxPoint x="26" y="317.33333333333326" as="targetPoint" />
            <Array as="points">
              <mxPoint x="435" y="341" />
            </Array>
          </mxGeometry>
        </mxCell>
        <mxCell id="YIQKjSeeT6Y3a5OQeeYc-41" value="&lt;span style=&quot;font-size: 17px;&quot;&gt;Compiler-javac&lt;/span&gt;" style="rounded=0;whiteSpace=wrap;html=1;fontFamily=Helvetica;fontSize=9;fontColor=default;" vertex="1" parent="WIyWlLk6GJQsqaUBKTNV-1">
          <mxGeometry x="375.0000000000002" y="351" width="120" height="60" as="geometry" />
        </mxCell>
        <mxCell id="YIQKjSeeT6Y3a5OQeeYc-44" style="edgeStyle=orthogonalEdgeStyle;rounded=0;orthogonalLoop=1;jettySize=auto;html=1;fontFamily=Helvetica;fontSize=17;fontColor=default;" edge="1" parent="WIyWlLk6GJQsqaUBKTNV-1" source="YIQKjSeeT6Y3a5OQeeYc-43">
          <mxGeometry relative="1" as="geometry">
            <mxPoint x="57.888888888888914" y="258" as="targetPoint" />
          </mxGeometry>
        </mxCell>
        <mxCell id="YIQKjSeeT6Y3a5OQeeYc-43" value="Filename.java" style="ellipse;whiteSpace=wrap;html=1;fontFamily=Helvetica;fontSize=17;fontColor=default;" vertex="1" parent="WIyWlLk6GJQsqaUBKTNV-1">
          <mxGeometry x="-113" y="218" width="125" height="80" as="geometry" />
        </mxCell>
        <mxCell id="YIQKjSeeT6Y3a5OQeeYc-52" style="edgeStyle=orthogonalEdgeStyle;rounded=0;orthogonalLoop=1;jettySize=auto;html=1;fontFamily=Helvetica;fontSize=17;fontColor=default;" edge="1" parent="WIyWlLk6GJQsqaUBKTNV-1" source="YIQKjSeeT6Y3a5OQeeYc-45" target="YIQKjSeeT6Y3a5OQeeYc-49">
          <mxGeometry relative="1" as="geometry" />
        </mxCell>
        <mxCell id="YIQKjSeeT6Y3a5OQeeYc-45" value="Filename.class" style="ellipse;whiteSpace=wrap;html=1;fontFamily=Helvetica;fontSize=17;fontColor=default;" vertex="1" parent="WIyWlLk6GJQsqaUBKTNV-1">
          <mxGeometry x="58" y="218" width="125" height="80" as="geometry" />
        </mxCell>
        <mxCell id="YIQKjSeeT6Y3a5OQeeYc-46" value="Java Virtual Machine" style="ellipse;whiteSpace=wrap;html=1;fontFamily=Helvetica;fontSize=17;fontColor=default;" vertex="1" parent="WIyWlLk6GJQsqaUBKTNV-1">
          <mxGeometry x="224" y="218" width="125" height="80" as="geometry" />
        </mxCell>
        <mxCell id="YIQKjSeeT6Y3a5OQeeYc-47" value="Just in Time Compiler" style="ellipse;whiteSpace=wrap;html=1;fontFamily=Helvetica;fontSize=17;fontColor=default;" vertex="1" parent="WIyWlLk6GJQsqaUBKTNV-1">
          <mxGeometry x="398" y="218" width="125" height="80" as="geometry" />
        </mxCell>
        <mxCell id="YIQKjSeeT6Y3a5OQeeYc-48" value="Binary Code" style="ellipse;whiteSpace=wrap;html=1;fontFamily=Helvetica;fontSize=17;fontColor=default;" vertex="1" parent="WIyWlLk6GJQsqaUBKTNV-1">
          <mxGeometry x="553" y="218" width="125" height="80" as="geometry" />
        </mxCell>
        <mxCell id="YIQKjSeeT6Y3a5OQeeYc-49" value="Execution" style="ellipse;whiteSpace=wrap;html=1;fontFamily=Helvetica;fontSize=17;fontColor=default;" vertex="1" parent="WIyWlLk6GJQsqaUBKTNV-1">
          <mxGeometry x="708" y="215" width="125" height="80" as="geometry" />
        </mxCell>
        <mxCell id="YIQKjSeeT6Y3a5OQeeYc-56" style="edgeStyle=orthogonalEdgeStyle;rounded=0;orthogonalLoop=1;jettySize=auto;html=1;exitX=0.5;exitY=1;exitDx=0;exitDy=0;fontFamily=Helvetica;fontSize=20;fontColor=default;" edge="1" parent="WIyWlLk6GJQsqaUBKTNV-1" source="YIQKjSeeT6Y3a5OQeeYc-54">
          <mxGeometry relative="1" as="geometry">
            <mxPoint x="1037" y="684" as="targetPoint" />
          </mxGeometry>
        </mxCell>
        <mxCell id="YIQKjSeeT6Y3a5OQeeYc-57" style="edgeStyle=orthogonalEdgeStyle;rounded=0;orthogonalLoop=1;jettySize=auto;html=1;exitX=0.5;exitY=1;exitDx=0;exitDy=0;fontFamily=Helvetica;fontSize=20;fontColor=default;" edge="1" parent="WIyWlLk6GJQsqaUBKTNV-1" source="YIQKjSeeT6Y3a5OQeeYc-54">
          <mxGeometry relative="1" as="geometry">
            <mxPoint x="1701" y="682" as="targetPoint" />
          </mxGeometry>
        </mxCell>
        <mxCell id="YIQKjSeeT6Y3a5OQeeYc-54" value="DATA TYPES" style="rounded=0;whiteSpace=wrap;html=1;fontFamily=Helvetica;fontSize=24;fontColor=default;fontStyle=1" vertex="1" parent="WIyWlLk6GJQsqaUBKTNV-1">
          <mxGeometry x="1288" y="452" width="231" height="67" as="geometry" />
        </mxCell>
        <mxCell id="YIQKjSeeT6Y3a5OQeeYc-62" style="edgeStyle=orthogonalEdgeStyle;rounded=0;orthogonalLoop=1;jettySize=auto;html=1;exitX=0.5;exitY=1;exitDx=0;exitDy=0;fontFamily=Helvetica;fontSize=20;fontColor=default;" edge="1" parent="WIyWlLk6GJQsqaUBKTNV-1" source="YIQKjSeeT6Y3a5OQeeYc-58">
          <mxGeometry relative="1" as="geometry">
            <mxPoint x="955" y="850" as="targetPoint" />
          </mxGeometry>
        </mxCell>
        <mxCell id="YIQKjSeeT6Y3a5OQeeYc-66" style="edgeStyle=orthogonalEdgeStyle;rounded=0;orthogonalLoop=1;jettySize=auto;html=1;fontFamily=Helvetica;fontSize=20;fontColor=default;" edge="1" parent="WIyWlLk6GJQsqaUBKTNV-1" source="YIQKjSeeT6Y3a5OQeeYc-58">
          <mxGeometry relative="1" as="geometry">
            <mxPoint x="1191" y="848" as="targetPoint" />
          </mxGeometry>
        </mxCell>
        <mxCell id="YIQKjSeeT6Y3a5OQeeYc-58" value="Primitive Data Types&lt;span style=&quot;color: rgba(0, 0, 0, 0); font-family: monospace; font-size: 0px; text-align: start;&quot;&gt;%3CmxGraphModel%3E%3Croot%3E%3CmxCell%20id%3D%220%22%2F%3E%3CmxCell%20id%3D%221%22%20parent%3D%220%22%2F%3E%3CmxCell%20id%3D%222%22%20value%3D%22Filename.java%22%20style%3D%22ellipse%3BwhiteSpace%3Dwrap%3Bhtml%3D1%3BfontFamily%3DHelvetica%3BfontSize%3D17%3BfontColor%3Ddefault%3B%22%20vertex%3D%221%22%20parent%3D%221%22%3E%3CmxGeometry%20x%3D%22-113%22%20y%3D%22218%22%20width%3D%22125%22%20height%3D%2280%22%20as%3D%22geometry%22%2F%3E%3C%2FmxCell%3E%3C%2Froot%3E%3C%2FmxGraphModel%3E&lt;/span&gt;" style="ellipse;whiteSpace=wrap;html=1;fontFamily=Helvetica;fontSize=20;fontColor=default;" vertex="1" parent="WIyWlLk6GJQsqaUBKTNV-1">
          <mxGeometry x="923" y="677" width="270" height="80" as="geometry" />
        </mxCell>
        <mxCell id="YIQKjSeeT6Y3a5OQeeYc-60" value="Non-Primitive Data Types&lt;span style=&quot;color: rgba(0, 0, 0, 0); font-family: monospace; font-size: 0px; text-align: start;&quot;&gt;%3CmxGraphModel%3E%3Croot%3E%3CmxCell%20id%3D%220%22%2F%3E%3CmxCell%20id%3D%221%22%20parent%3D%220%22%2F%3E%3CmxCell%20id%3D%222%22%20value%3D%22Filename.java%22%20style%3D%22ellipse%3BwhiteSpace%3Dwrap%3Bhtml%3D1%3BfontFamily%3DHelvetica%3BfontSize%3D17%3BfontColor%3Ddefault%3B%22%20vertex%3D%221%22%20parent%3D%221%22%3E%3CmxGeometry%20x%3D%22-113%22%20y%3D%22218%22%20width%3D%22125%22%20height%3D%2280%22%20as%3D%22geometry%22%2F%3E%3C%2FmxCell%3E%3C%2Froot%3E%3C%2FmxGraphModel%3E&lt;/span&gt;" style="ellipse;whiteSpace=wrap;html=1;fontFamily=Helvetica;fontSize=20;fontColor=default;" vertex="1" parent="WIyWlLk6GJQsqaUBKTNV-1">
          <mxGeometry x="1553" y="683" width="270" height="88" as="geometry" />
        </mxCell>
        <mxCell id="YIQKjSeeT6Y3a5OQeeYc-68" style="edgeStyle=orthogonalEdgeStyle;rounded=0;orthogonalLoop=1;jettySize=auto;html=1;exitX=0.5;exitY=1;exitDx=0;exitDy=0;fontFamily=Helvetica;fontSize=20;fontColor=default;" edge="1" parent="WIyWlLk6GJQsqaUBKTNV-1" source="YIQKjSeeT6Y3a5OQeeYc-67" target="YIQKjSeeT6Y3a5OQeeYc-69">
          <mxGeometry relative="1" as="geometry">
            <mxPoint x="954.6666666666665" y="949" as="targetPoint" />
          </mxGeometry>
        </mxCell>
        <mxCell id="YIQKjSeeT6Y3a5OQeeYc-67" value="Boolean Type" style="rounded=1;whiteSpace=wrap;html=1;fontFamily=Helvetica;fontSize=20;fontColor=default;" vertex="1" parent="WIyWlLk6GJQsqaUBKTNV-1">
          <mxGeometry x="894" y="852" width="120" height="60" as="geometry" />
        </mxCell>
        <mxCell id="YIQKjSeeT6Y3a5OQeeYc-69" value="Boolean" style="rounded=1;whiteSpace=wrap;html=1;fontFamily=Helvetica;fontSize=20;fontColor=default;" vertex="1" parent="WIyWlLk6GJQsqaUBKTNV-1">
          <mxGeometry x="893.9966666666666" y="1038" width="120" height="60" as="geometry" />
        </mxCell>
        <mxCell id="YIQKjSeeT6Y3a5OQeeYc-70" value="Numeric Type" style="rounded=1;whiteSpace=wrap;html=1;fontFamily=Helvetica;fontSize=20;fontColor=default;" vertex="1" parent="WIyWlLk6GJQsqaUBKTNV-1">
          <mxGeometry x="1127" y="852" width="120" height="60" as="geometry" />
        </mxCell>
        <mxCell id="YIQKjSeeT6Y3a5OQeeYc-72" value="" style="endArrow=classic;html=1;rounded=0;fontFamily=Helvetica;fontSize=20;fontColor=default;exitX=0.5;exitY=1;exitDx=0;exitDy=0;" edge="1" parent="WIyWlLk6GJQsqaUBKTNV-1" source="YIQKjSeeT6Y3a5OQeeYc-70">
          <mxGeometry width="50" height="50" relative="1" as="geometry">
            <mxPoint x="1304" y="893" as="sourcePoint" />
            <mxPoint x="1131" y="1012" as="targetPoint" />
            <Array as="points" />
          </mxGeometry>
        </mxCell>
        <mxCell id="YIQKjSeeT6Y3a5OQeeYc-73" value="" style="endArrow=classic;html=1;rounded=0;fontFamily=Helvetica;fontSize=20;fontColor=default;exitX=0.5;exitY=1;exitDx=0;exitDy=0;" edge="1" parent="WIyWlLk6GJQsqaUBKTNV-1" source="YIQKjSeeT6Y3a5OQeeYc-70">
          <mxGeometry width="50" height="50" relative="1" as="geometry">
            <mxPoint x="1197" y="922" as="sourcePoint" />
            <mxPoint x="1335" y="1010" as="targetPoint" />
            <Array as="points" />
          </mxGeometry>
        </mxCell>
        <mxCell id="YIQKjSeeT6Y3a5OQeeYc-75" style="edgeStyle=orthogonalEdgeStyle;rounded=0;orthogonalLoop=1;jettySize=auto;html=1;exitX=0.5;exitY=1;exitDx=0;exitDy=0;fontFamily=Helvetica;fontSize=20;fontColor=default;" edge="1" parent="WIyWlLk6GJQsqaUBKTNV-1" source="YIQKjSeeT6Y3a5OQeeYc-74">
          <mxGeometry relative="1" as="geometry">
            <mxPoint x="1125.3333333333335" y="1106.3333333333333" as="targetPoint" />
          </mxGeometry>
        </mxCell>
        <mxCell id="YIQKjSeeT6Y3a5OQeeYc-74" value="Character Value" style="rounded=1;whiteSpace=wrap;html=1;fontFamily=Helvetica;fontSize=20;fontColor=default;" vertex="1" parent="WIyWlLk6GJQsqaUBKTNV-1">
          <mxGeometry x="1064.9966666666664" y="1012" width="120" height="60" as="geometry" />
        </mxCell>
        <mxCell id="YIQKjSeeT6Y3a5OQeeYc-76" value="Char" style="rounded=1;whiteSpace=wrap;html=1;fontFamily=Helvetica;fontSize=20;fontColor=default;" vertex="1" parent="WIyWlLk6GJQsqaUBKTNV-1">
          <mxGeometry x="1064.9966666666664" y="1107" width="120" height="60" as="geometry" />
        </mxCell>
        <mxCell id="YIQKjSeeT6Y3a5OQeeYc-77" value="Integral Value" style="rounded=1;whiteSpace=wrap;html=1;fontFamily=Helvetica;fontSize=20;fontColor=default;" vertex="1" parent="WIyWlLk6GJQsqaUBKTNV-1">
          <mxGeometry x="1270.9966666666664" y="1012" width="120" height="60" as="geometry" />
        </mxCell>
        <mxCell id="YIQKjSeeT6Y3a5OQeeYc-79" value="" style="endArrow=classic;html=1;rounded=0;fontFamily=Helvetica;fontSize=20;fontColor=default;exitX=0.5;exitY=1;exitDx=0;exitDy=0;" edge="1" parent="WIyWlLk6GJQsqaUBKTNV-1">
          <mxGeometry width="50" height="50" relative="1" as="geometry">
            <mxPoint x="1327" y="1072" as="sourcePoint" />
            <mxPoint x="1271" y="1172" as="targetPoint" />
            <Array as="points" />
          </mxGeometry>
        </mxCell>
        <mxCell id="YIQKjSeeT6Y3a5OQeeYc-80" value="" style="endArrow=classic;html=1;rounded=0;fontFamily=Helvetica;fontSize=20;fontColor=default;" edge="1" parent="WIyWlLk6GJQsqaUBKTNV-1">
          <mxGeometry width="50" height="50" relative="1" as="geometry">
            <mxPoint x="1347" y="1074" as="sourcePoint" />
            <mxPoint x="1400" y="1165" as="targetPoint" />
            <Array as="points" />
          </mxGeometry>
        </mxCell>
        <mxCell id="YIQKjSeeT6Y3a5OQeeYc-81" value="Integer" style="rounded=1;whiteSpace=wrap;html=1;fontFamily=Helvetica;fontSize=20;fontColor=default;" vertex="1" parent="WIyWlLk6GJQsqaUBKTNV-1">
          <mxGeometry x="1206" y="1172" width="134" height="69" as="geometry" />
        </mxCell>
        <mxCell id="YIQKjSeeT6Y3a5OQeeYc-84" style="edgeStyle=orthogonalEdgeStyle;rounded=0;orthogonalLoop=1;jettySize=auto;html=1;fontFamily=Helvetica;fontSize=20;fontColor=default;" edge="1" parent="WIyWlLk6GJQsqaUBKTNV-1" source="YIQKjSeeT6Y3a5OQeeYc-83" target="YIQKjSeeT6Y3a5OQeeYc-88">
          <mxGeometry relative="1" as="geometry">
            <mxPoint x="1537.3333333333335" y="1199.5" as="targetPoint" />
          </mxGeometry>
        </mxCell>
        <mxCell id="YIQKjSeeT6Y3a5OQeeYc-83" value="Floating Point" style="rounded=1;whiteSpace=wrap;html=1;fontFamily=Helvetica;fontSize=20;fontColor=default;" vertex="1" parent="WIyWlLk6GJQsqaUBKTNV-1">
          <mxGeometry x="1373" y="1169" width="129" height="61" as="geometry" />
        </mxCell>
        <mxCell id="YIQKjSeeT6Y3a5OQeeYc-87" value="" style="endArrow=classic;html=1;rounded=0;fontFamily=Helvetica;fontSize=20;fontColor=default;exitX=1;exitY=0.5;exitDx=0;exitDy=0;" edge="1" parent="WIyWlLk6GJQsqaUBKTNV-1" source="YIQKjSeeT6Y3a5OQeeYc-83">
          <mxGeometry width="50" height="50" relative="1" as="geometry">
            <mxPoint x="1505" y="1241" as="sourcePoint" />
            <mxPoint x="1589" y="1257" as="targetPoint" />
          </mxGeometry>
        </mxCell>
        <mxCell id="YIQKjSeeT6Y3a5OQeeYc-88" value="float" style="ellipse;whiteSpace=wrap;html=1;fontFamily=Helvetica;fontSize=20;fontColor=default;" vertex="1" parent="WIyWlLk6GJQsqaUBKTNV-1">
          <mxGeometry x="1584" y="1176.38" width="80" height="46.25" as="geometry" />
        </mxCell>
        <mxCell id="YIQKjSeeT6Y3a5OQeeYc-89" value="double" style="ellipse;whiteSpace=wrap;html=1;fontFamily=Helvetica;fontSize=20;fontColor=default;" vertex="1" parent="WIyWlLk6GJQsqaUBKTNV-1">
          <mxGeometry x="1589" y="1241" width="80" height="46.25" as="geometry" />
        </mxCell>
        <mxCell id="YIQKjSeeT6Y3a5OQeeYc-90" value="" style="endArrow=classic;html=1;rounded=0;fontFamily=Helvetica;fontSize=20;fontColor=default;entryX=0.75;entryY=0.033;entryDx=0;entryDy=0;entryPerimeter=0;" edge="1" parent="WIyWlLk6GJQsqaUBKTNV-1" target="YIQKjSeeT6Y3a5OQeeYc-95">
          <mxGeometry width="50" height="50" relative="1" as="geometry">
            <mxPoint x="1259" y="1241" as="sourcePoint" />
            <mxPoint x="1145" y="1328" as="targetPoint" />
          </mxGeometry>
        </mxCell>
        <mxCell id="YIQKjSeeT6Y3a5OQeeYc-91" value="" style="endArrow=classic;html=1;rounded=0;fontFamily=Helvetica;fontSize=20;fontColor=default;" edge="1" parent="WIyWlLk6GJQsqaUBKTNV-1">
          <mxGeometry width="50" height="50" relative="1" as="geometry">
            <mxPoint x="1264" y="1241" as="sourcePoint" />
            <mxPoint x="1194" y="1351" as="targetPoint" />
          </mxGeometry>
        </mxCell>
        <mxCell id="YIQKjSeeT6Y3a5OQeeYc-92" value="" style="endArrow=classic;html=1;rounded=0;fontFamily=Helvetica;fontSize=20;fontColor=default;entryX=0.5;entryY=0;entryDx=0;entryDy=0;" edge="1" parent="WIyWlLk6GJQsqaUBKTNV-1" source="YIQKjSeeT6Y3a5OQeeYc-81" target="YIQKjSeeT6Y3a5OQeeYc-97">
          <mxGeometry width="50" height="50" relative="1" as="geometry">
            <mxPoint x="1272" y="1244" as="sourcePoint" />
            <mxPoint x="1266" y="1347" as="targetPoint" />
          </mxGeometry>
        </mxCell>
        <mxCell id="YIQKjSeeT6Y3a5OQeeYc-93" value="" style="endArrow=classic;html=1;rounded=0;fontFamily=Helvetica;fontSize=20;fontColor=default;entryX=0.5;entryY=0;entryDx=0;entryDy=0;" edge="1" parent="WIyWlLk6GJQsqaUBKTNV-1" source="YIQKjSeeT6Y3a5OQeeYc-81" target="YIQKjSeeT6Y3a5OQeeYc-98">
          <mxGeometry width="50" height="50" relative="1" as="geometry">
            <mxPoint x="1287" y="1275" as="sourcePoint" />
            <mxPoint x="1338" y="1356" as="targetPoint" />
            <Array as="points" />
          </mxGeometry>
        </mxCell>
        <mxCell id="YIQKjSeeT6Y3a5OQeeYc-95" value="byte" style="ellipse;whiteSpace=wrap;html=1;fontFamily=Helvetica;fontSize=20;fontColor=default;" vertex="1" parent="WIyWlLk6GJQsqaUBKTNV-1">
          <mxGeometry x="1065" y="1339" width="80" height="46.25" as="geometry" />
        </mxCell>
        <mxCell id="YIQKjSeeT6Y3a5OQeeYc-96" value="short" style="ellipse;whiteSpace=wrap;html=1;fontFamily=Helvetica;fontSize=20;fontColor=default;" vertex="1" parent="WIyWlLk6GJQsqaUBKTNV-1">
          <mxGeometry x="1147" y="1354" width="80" height="46.25" as="geometry" />
        </mxCell>
        <mxCell id="YIQKjSeeT6Y3a5OQeeYc-97" value="int" style="ellipse;whiteSpace=wrap;html=1;fontFamily=Helvetica;fontSize=20;fontColor=default;" vertex="1" parent="WIyWlLk6GJQsqaUBKTNV-1">
          <mxGeometry x="1233" y="1359" width="80" height="46.25" as="geometry" />
        </mxCell>
        <mxCell id="YIQKjSeeT6Y3a5OQeeYc-98" value="long" style="ellipse;whiteSpace=wrap;html=1;fontFamily=Helvetica;fontSize=20;fontColor=default;" vertex="1" parent="WIyWlLk6GJQsqaUBKTNV-1">
          <mxGeometry x="1319" y="1354" width="80" height="46.25" as="geometry" />
        </mxCell>
      </root>
    </mxGraphModel>
  </diagram>
</mxfile>
